<svg xmlns="http://www.w3.org/2000/svg" width="192.4" height="69.76" viewBox="0 0 192.4 69.76"><path d="M5.92,18.8a3.458,3.458,0,0,1-.08-.64V18q0-1.92,2.72-6.08,2.8-4.159,2.8-5.839,0-5.52-5.6-6.961V-14H0v-2H5.76v-7.28L4-24.8l-2.319,2L.48-24.16,7.6-30.4l4.48,4,2.48-2.16,1.2,1.44-4.4,3.839V-16H21.84V-42.24A24.8,24.8,0,0,0,20.96-48l1.76-.561q.4,1.76.641,3.12t.4,2.32a20.77,20.77,0,0,1,5.04-7.84l1.28,1.04a13.358,13.358,0,0,0-2.64,8.24V-16h11.6v-7.28h-2v-1.84a31.67,31.67,0,0,0,8.64-.96,17.989,17.989,0,0,0,7.68-4.32l5.68,4.16L61.6-28.48l1.2,1.44-3.92,3.52V-16H70.691a2.743,2.743,0,0,1,1.629-.959H76.96l5.76-8.32a14.08,14.08,0,0,1-7.92,2.96,10.931,10.931,0,0,1-5.36-1.52l-1.68,2.48L66.24-22.4l5.6-8a11.7,11.7,0,0,0,7.84,3.04,8.645,8.645,0,0,0,6.4-2.32l1.44,1.121L79.28-16.96h3.68l1.679-2.4,1.52,1.12Q85.307-16.935,84.65-16h9.67v-7.28h-2v-1.84a31.67,31.67,0,0,0,8.64-.96,17.989,17.989,0,0,0,7.68-4.32l5.68,4.16,2.561-2.239,1.2,1.44-3.92,3.52V-16h11.2v-7.28q-4.56-2.16-4.56-6.639,0-6.48,6.32-8.4l.561,1.76q-3.44,1.52-3.441,3.839,0,4.161,6.72,4.161V-16h8.72v-6.24l-2.56-2.48-1.76,1.68-1.28-1.44,6.56-5.92,4.8,4.64,2.72-2.4,1.28,1.36-4.16,3.76V-16h10.88v-7.28q-.8.081-1.2.08h-.4l-.48-.04q-.481-.04-1.52-.121V-25.2a22.413,22.413,0,0,0,14.96-5.2L176-19.84,170.208-16H180.64v-6.96l-2.16-1.84L176-22.64l-1.12-1.44,7.2-6.32,4.48,4.081,2.48-2,1.2,1.36-4,3.6V-16H192.4v2H186.24v3.92q0,3.76,1.84,5.12L190.16-6.8l1.2,1.44L184.16.88q-3.519-2.561-3.52-8.48V-14H167.191l-5.431,3.6v4.48l3.68,2.24,7.12-4.8,1.04,1.6L161.76.88l-6.4-3.92L153.44-1.2l-1.2-1.52,3.919-3.6V-14H145.28V-6.32A4.851,4.851,0,0,1,146-6.4h.481a6.639,6.639,0,0,1,.879.08V-4.4q-1.2-.08-1.92-.08h-.96A18.06,18.06,0,0,0,131.04.88l-6.16-4.4-2.32,2-1.2-1.36,4-3.68V-14h-11.2V-6.16h1.921v1.84A25.41,25.41,0,0,0,99.92.88l-6-4.24-2.24,2L90.4-2.8l3.92-3.44V-14H83.1a1.824,1.824,0,0,1-.378.32q-.88.481-6.16.48L69.6-3.76q5.121-3.2,8.96-3.2a12.678,12.678,0,0,1,6.16,1.84L86-6.96,87.52-5.92,82.72.88Q78-2.641,74-2.64A8.719,8.719,0,0,0,67.2,0L65.6-1.2l8.64-12H70.72l-2,2.8L67.2-11.44q.964-1.478,1.779-2.561H58.88V-6.16H60.8v1.84A25.41,25.41,0,0,0,44.64.88l-6-4.24-2.24,2L35.12-2.8l3.92-3.44V-14H27.44V-6.24l1.84,1.76,2.641-2.4L33.2-5.52,25.84.88,21.28-3.44,18.56-1.2,17.28-2.72l4.56-3.84V-14H11.36v9.44a8.029,8.029,0,0,1,4.48,7.6q0,3.76-4.16,8.64Q7.6,16.64,7.6,18.8ZM130.96-6.48l3.44,2.56a31.165,31.165,0,0,1,5.28-1.92V-14h-8.72ZM99.92-7.2l4.16,3.04q.88-.4,2-.8a23.208,23.208,0,0,1,2.479-.72V-14H99.92Zm-55.28,0L48.8-4.16q.88-.4,2-.8a23.288,23.288,0,0,1,2.48-.72V-14H44.64Zm117.12-5.36L163.878-14H161.76ZM166.819-16l2.941-2-5.84-7.12-2.16.72V-16ZM108.56-16v-6.96l-3.44-2.48a20.154,20.154,0,0,1-5.2,1.84V-16ZM53.28-16v-6.96l-3.44-2.48a20.154,20.154,0,0,1-5.2,1.84V-16ZM178.64-38.8l-1.68,1.44-1.2-1.44,6.48-5.6,4.48,4,1.6-1.36,1.2,1.44-6.32,5.6ZM4.48-39.28,2.8-37.84,1.52-39.28,8-44.88l4.48,4,1.6-1.36L15.36-40.8,9.04-35.2Z" transform="translate(0 50.96)" fill="#fff"/></svg>